<?xml version="1.0" standalone="no"?>
<!DOCTYPE svg PUBLIC "-//W3C//DTD SVG 20010904//EN"
 "http://www.w3.org/TR/2001/REC-SVG-20010904/DTD/svg10.dtd">
<svg version="1.0" xmlns="http://www.w3.org/2000/svg"
 width="389.000000pt" height="235.000000pt" viewBox="0 0 389.000000 235.000000"
 preserveAspectRatio="xMidYMid meet">

<g transform="translate(0.000000,235.000000) scale(0.100000,-0.100000)"
fill="#000000" stroke="none">
<path d="M2737 2253 c-3 -5 -8 -427 -12 -939 l-6 -931 221 -7 c122 -3 356 -3
521 0 l299 7 0 229 0 228 -276 0 -276 0 3 167 c2 121 -1 168 -9 171 -9 3 -12
134 -12 528 0 456 2 525 15 530 8 4 12 10 9 15 -6 11 -471 12 -477 2z"/>
<path d="M1975 2231 c-134 -35 -209 -79 -333 -196 -198 -186 -283 -379 -298
-670 -6 -108 6 -261 21 -286 6 -9 314 146 331 167 6 8 15 10 20 6 4 -4 2 1 -5
11 -14 18 -17 170 -3 191 3 6 7 22 8 35 2 14 7 35 13 46 5 11 17 42 28 68 16
42 103 149 103 127 0 -5 -4 -12 -10 -15 -5 -3 -15 -16 -21 -28 -6 -12 2 -6 19
13 16 19 28 38 25 43 -2 4 1 6 9 5 7 -2 12 3 10 10 -1 6 1 11 5 10 5 -1 39 15
77 36 133 76 249 97 422 78 59 -7 110 -10 112 -7 3 3 -2 13 -12 23 -14 16 -16
41 -15 166 1 110 4 144 13 137 8 -7 12 -4 12 8 0 28 -102 41 -298 40 -122 0
-181 -5 -233 -18z m-95 -455 c0 -2 -8 -10 -17 -17 -16 -13 -17 -12 -4 4 13 16
21 21 21 13z"/>
<path d="M140 2020 l0 -210 191 -2 190 -3 -1 -482 0 -483 64 0 c80 0 242 33
378 76 l48 16 0 188 c0 175 -1 190 -19 202 -11 8 -17 19 -13 25 4 6 5 111 2
233 -4 194 1 270 16 235 5 -12 394 -8 394 4 0 5 -6 13 -13 19 -10 9 -14 54
-15 177 -1 138 1 170 14 191 l16 24 -626 0 -626 0 0 -210z"/>
<path d="M2490 2100 c0 -5 5 -10 11 -10 5 0 7 5 4 10 -3 6 -8 10 -11 10 -2 0
-4 -4 -4 -10z"/>
<path d="M2495 1950 c3 -5 8 -10 11 -10 2 0 4 5 4 10 0 6 -5 10 -11 10 -5 0
-7 -4 -4 -10z"/>
<path d="M2375 1628 c-332 -254 -875 -563 -1195 -681 -417 -154 -711 -188
-843 -97 -54 37 -70 68 -78 145 -3 38 -7 61 -8 50 -1 -14 -4 -16 -9 -7 -11 17
-33 -54 -39 -128 -6 -64 8 -123 40 -171 154 -228 859 -30 1577 445 218 143
493 352 597 452 24 22 45 39 47 37 2 -2 8 3 14 10 29 35 -20 9 -103 -55z"/>
<path d="M1783 1618 c-15 -20 -25 -38 -20 -38 3 0 12 11 21 25 17 26 16 35 -1
13z"/>
<path d="M1731 1444 c0 -11 3 -14 6 -6 3 7 2 16 -1 19 -3 4 -6 -2 -5 -13z"/>
<path d="M1720 1077 c-14 -7 -63 -36 -110 -64 -47 -28 -106 -62 -132 -74 -27
-13 -48 -26 -48 -29 0 -3 21 -41 47 -85 70 -121 221 -266 338 -326 107 -55
162 -74 275 -94 109 -19 243 -18 345 3 l80 17 3 183 2 182 -42 -7 c-24 -5
-101 -8 -173 -8 -154 0 -238 22 -331 84 -74 50 -103 80 -152 160 -21 36 -45
67 -53 69 -11 4 -12 2 -1 -9 14 -15 16 -29 4 -29 -5 0 -13 9 -18 20 -8 18 -12
18 -34 7z"/>
<path d="M930 699 c-85 -31 -271 -76 -344 -84 l-66 -7 0 -109 0 -109 245 0
245 0 0 165 c0 126 -3 165 -12 164 -7 0 -38 -9 -68 -20z"/>
<path d="M621 254 c0 -11 3 -14 6 -6 3 7 2 16 -1 19 -3 4 -6 -2 -5 -13z"/>
<path d="M650 261 c0 -6 5 -13 10 -16 6 -3 10 1 10 9 0 9 -4 16 -10 16 -5 0
-10 -4 -10 -9z"/>
<path d="M1580 255 c0 -8 5 -15 10 -15 6 0 10 7 10 15 0 8 -4 15 -10 15 -5 0
-10 -7 -10 -15z"/>
<path d="M490 215 c0 -8 7 -15 15 -15 12 0 15 -14 15 -70 0 -40 4 -70 10 -70
6 0 10 30 10 70 0 63 2 70 20 70 11 0 20 7 20 15 0 11 -12 15 -45 15 -33 0
-45 -4 -45 -15z"/>
<path d="M600 155 c0 -63 3 -76 19 -85 49 -26 71 2 71 91 0 89 -18 90 -22 2
-3 -62 -5 -68 -25 -71 -22 -3 -23 0 -23 67 0 41 -4 71 -10 71 -6 0 -10 -32
-10 -75z"/>
<path d="M720 145 c0 -50 4 -85 10 -85 6 0 10 16 10 35 0 24 5 35 15 35 8 0
21 -16 29 -35 8 -19 20 -35 25 -35 14 0 14 6 -4 40 -14 27 -14 32 0 54 16 23
11 54 -9 68 -6 4 -26 8 -43 8 l-33 0 0 -85z m75 35 c0 -9 -11 -16 -27 -18 -23
-3 -28 1 -28 18 0 17 5 21 28 18 16 -2 27 -9 27 -18z"/>
<path d="M840 145 c0 -50 4 -85 10 -85 6 0 10 13 10 29 0 16 7 34 15 41 12 10
17 5 31 -29 9 -23 23 -41 30 -41 11 0 8 13 -11 51 l-26 50 21 35 c31 49 6 42
-27 -8 l-28 -42 -3 42 c-6 76 -22 44 -22 -43z"/>
<path d="M970 145 l0 -85 40 0 c29 0 40 4 40 15 0 10 -11 15 -35 15 -28 0 -35
4 -35 20 0 16 7 20 35 20 24 0 35 5 35 15 0 10 -11 15 -35 15 -28 0 -35 4 -35
20 0 16 7 20 35 20 24 0 35 5 35 15 0 11 -11 15 -40 15 l-40 0 0 -85z"/>
<path d="M1080 145 l0 -85 40 0 c29 0 40 4 40 15 0 10 -10 15 -30 15 l-30 0 0
70 c0 40 -4 70 -10 70 -6 0 -10 -35 -10 -85z"/>
<path d="M1233 145 c-1 -65 1 -81 7 -57 13 57 28 61 47 14 9 -23 22 -42 29
-42 10 0 8 14 -10 53 -23 53 -23 54 -5 78 21 27 24 39 9 39 -5 0 -22 -19 -37
-42 l-28 -43 -6 45 c-4 33 -6 20 -6 -45z"/>
<path d="M1361 152 c-24 -89 -24 -92 -12 -92 5 0 11 9 14 20 7 27 53 27 62 0
3 -11 11 -20 17 -20 5 0 8 6 6 13 -3 6 -13 45 -23 85 -11 39 -24 72 -31 72 -6
0 -21 -35 -33 -78z m48 -9 c1 -7 -8 -13 -18 -13 -18 0 -19 3 -9 32 10 28 12
30 19 12 4 -10 8 -25 8 -31z"/>
<path d="M1470 145 l0 -85 40 0 c29 0 40 4 40 15 0 10 -10 15 -30 15 l-30 0 0
70 c0 40 -4 70 -10 70 -6 0 -10 -35 -10 -85z"/>
<path d="M1580 145 c0 -50 4 -85 10 -85 6 0 10 35 10 85 0 50 -4 85 -10 85 -6
0 -10 -35 -10 -85z"/>
<path d="M1620 145 l0 -85 34 0 c43 0 70 25 61 54 -4 12 -7 36 -6 55 2 44 -14
61 -55 61 l-34 0 0 -85z m70 35 c0 -15 -7 -20 -25 -20 -18 0 -25 5 -25 20 0
15 7 20 25 20 18 0 25 -5 25 -20z m5 -70 c0 -9 -11 -16 -27 -18 -23 -3 -28 1
-28 18 0 17 5 21 28 18 16 -2 27 -9 27 -18z"/>
<path d="M1740 145 c0 -50 4 -85 10 -85 6 0 10 16 10 35 0 25 5 35 15 35 9 0
23 -16 32 -35 17 -35 33 -46 33 -22 0 7 -7 23 -16 35 -15 21 -15 25 0 41 34
37 7 81 -50 81 l-34 0 0 -85z m75 35 c0 -9 -11 -16 -27 -18 -23 -3 -28 1 -28
18 0 17 5 21 28 18 16 -2 27 -9 27 -18z"/>
<path d="M1891 193 c-6 -21 -17 -59 -25 -85 -8 -29 -10 -48 -4 -48 5 0 12 9
15 20 7 28 59 28 68 0 3 -11 11 -20 16 -20 11 0 13 -9 -15 84 -12 44 -28 82
-34 84 -6 2 -16 -14 -21 -35z m33 -35 c5 -23 3 -28 -13 -28 -14 0 -19 5 -16
15 14 42 16 48 19 44 2 -2 6 -16 10 -31z"/>
<path d="M2002 218 c-24 -24 -14 -58 23 -80 20 -11 34 -26 32 -32 -6 -19 -40
-19 -54 0 -20 27 -28 8 -9 -21 20 -31 51 -32 70 -2 22 33 10 65 -31 82 -19 8
-32 19 -28 25 8 13 45 13 45 0 0 -5 5 -10 10 -10 18 0 11 29 -9 40 -25 13 -34
13 -49 -2z"/>
<path d="M2090 227 c0 -2 9 -22 20 -45 11 -22 20 -59 20 -82 0 -22 5 -40 10
-40 6 0 10 16 10 35 0 20 6 48 14 63 21 41 28 72 18 72 -5 0 -16 -17 -24 -37
l-15 -38 -16 38 c-9 20 -21 37 -26 37 -6 0 -11 -1 -11 -3z"/>
<path d="M2244 222 c-54 -36 -36 -161 24 -162 6 0 21 9 32 20 52 52 1 181 -56
142z m57 -49 c20 -52 -20 -103 -56 -73 -18 15 -20 71 -3 88 20 20 48 14 59
-15z"/>
<path d="M2344 145 c0 -47 4 -85 8 -85 4 0 8 28 8 62 0 70 9 69 37 -6 29 -80
43 -71 43 28 0 51 -4 86 -10 86 -6 0 -10 -27 -10 -62 0 -70 -9 -68 -36 10 -26
76 -39 66 -40 -33z"/>
<path d="M2520 145 l0 -85 40 0 c29 0 40 4 40 15 0 10 -10 15 -30 15 l-30 0 0
70 c0 40 -4 70 -10 70 -6 0 -10 -35 -10 -85z"/>
<path d="M2632 151 c-25 -90 -25 -91 -12 -91 6 0 10 9 10 20 0 29 60 29 67 0
3 -11 10 -20 15 -20 6 0 8 6 5 13 -2 6 -13 45 -23 85 -10 39 -23 72 -30 72 -6
0 -21 -35 -32 -79z m47 -8 c1 -7 -8 -13 -18 -13 -18 0 -19 3 -9 32 10 28 12
30 19 12 4 -10 8 -25 8 -31z"/>
<path d="M2740 145 l0 -85 34 0 c43 0 70 25 61 54 -4 12 -7 36 -6 55 2 44 -14
61 -55 61 l-34 0 0 -85z m70 35 c0 -15 -7 -20 -25 -20 -18 0 -25 5 -25 20 0
15 7 20 25 20 18 0 25 -5 25 -20z m5 -70 c0 -9 -11 -16 -27 -18 -23 -3 -28 1
-28 18 0 17 5 21 28 18 16 -2 27 -9 27 -18z"/>
<path d="M2880 210 c-41 -41 -16 -150 35 -150 8 0 24 9 35 20 41 41 16 150
-35 150 -8 0 -24 -9 -35 -20z m64 -26 c17 -45 2 -94 -29 -94 -24 0 -35 17 -35
55 0 13 3 30 6 39 8 21 50 21 58 0z"/>
<path d="M3002 143 c1 -49 3 -71 5 -50 5 48 28 49 50 2 9 -19 23 -35 30 -35
10 0 8 10 -7 39 -17 34 -18 41 -5 51 18 15 20 51 3 68 -7 7 -27 12 -45 12
l-33 0 2 -87z m68 37 c0 -16 -7 -20 -30 -20 -23 0 -30 4 -30 20 0 16 7 20 30
20 23 0 30 -4 30 -20z"/>
<path d="M3132 155 c-25 -84 -26 -95 -12 -95 6 0 10 9 10 20 0 29 60 29 67 0
3 -11 10 -20 15 -20 6 0 8 6 5 13 -2 6 -13 45 -23 85 -10 39 -23 72 -29 72 -6
0 -21 -34 -33 -75z m47 -12 c1 -7 -8 -13 -18 -13 -18 0 -19 3 -9 32 10 28 12
30 19 12 4 -10 8 -25 8 -31z"/>
<path d="M3220 215 c0 -8 9 -15 20 -15 17 0 20 -8 23 -72 l3 -73 2 73 c2 65 4
72 22 72 11 0 20 7 20 15 0 11 -12 15 -45 15 -33 0 -45 -4 -45 -15z"/>
<path d="M3330 161 c0 -89 22 -117 71 -91 16 9 19 22 19 85 0 43 -4 75 -10 75
-6 0 -10 -30 -10 -71 0 -67 -1 -70 -22 -67 -21 3 -23 9 -26 71 -4 88 -22 87
-22 -2z"/>
<path d="M3463 145 c12 -47 26 -85 32 -85 6 0 20 38 32 85 11 47 17 85 12 85
-5 0 -13 -19 -19 -42 -21 -83 -26 -88 -39 -38 -20 74 -22 80 -30 80 -5 0 1
-38 12 -85z"/>
<path d="M3585 218 c-21 -67 -42 -158 -35 -158 5 0 12 9 15 20 9 28 61 28 68
0 3 -11 10 -20 15 -20 6 0 4 19 -4 47 -8 27 -19 65 -25 86 -10 37 -26 49 -34
25z m27 -63 c4 -20 1 -25 -14 -25 -14 0 -18 5 -14 16 3 9 6 22 6 30 0 23 17 7
22 -21z"/>
<path d="M3682 143 c1 -49 3 -71 5 -50 5 48 28 49 50 2 9 -19 23 -35 30 -35
10 0 8 10 -7 39 -17 34 -18 41 -5 51 18 15 20 51 3 68 -7 7 -27 12 -45 12
l-33 0 2 -87z m68 37 c0 -16 -7 -20 -30 -20 -23 0 -30 4 -30 20 0 16 7 20 30
20 23 0 30 -4 30 -20z"/>
<path d="M3800 146 c0 -47 4 -86 9 -86 12 0 11 159 -1 166 -4 3 -8 -33 -8 -80z"/>
</g>
</svg>
